<svg xmlns="http://www.w3.org/2000/svg" viewBox="0 0 96 96" fill="none">
  <rect width="96" height="96" rx="24" fill="#F0F4FE"/>
  <path
    d="M48 14L74 24V46C74 64.657 63.094 78.476 48 84C32.906 78.476 22 64.657 22 46V24L48 14Z"
    fill="#145AFF"
  />
  <path
    d="M48 22L67 29.308V46C67 59.309 59.589 70.84 48 75.973C36.411 70.84 29 59.309 29 46V29.308L48 22Z"
    fill="white"
    fill-opacity="0.96"
  />
  <path
    d="M39.736 48.836L34.444 43.544C33.468 42.568 31.885 42.568 30.909 43.544C29.933 44.52 29.933 46.103 30.909 47.079L37.968 54.138C38.944 55.114 40.527 55.114 41.503 54.138L64.291 31.35C65.267 30.374 65.267 28.791 64.291 27.815C63.315 26.839 61.732 26.839 60.756 27.815L39.736 48.836Z"
    fill="#145AFF"
  />
</svg>
